<mxfile host="app.diagrams.net" modified="2024-02-08T19:14:33.654Z" agent="Mozilla/5.0 (Windows NT 10.0; Win64; x64) AppleWebKit/537.36 (KHTML, like Gecko) Chrome/121.0.0.0 Safari/537.36" etag="gaipMmgpjkWvyflj_oWV" version="23.1.2" type="device">
  <diagram id="R2lEEEUBdFMjLlhIrx00" name="Page-1">
    <mxGraphModel dx="712" dy="736" grid="1" gridSize="10" guides="1" tooltips="1" connect="1" arrows="1" fold="1" page="1" pageScale="1" pageWidth="850" pageHeight="1100" math="0" shadow="0" extFonts="Permanent Marker^https://fonts.googleapis.com/css?family=Permanent+Marker">
      <root>
        <mxCell id="0" />
        <mxCell id="1" parent="0" />
        <mxCell id="EtfkU_EAuupEm0dGScPF-1" value="Department" style="shape=table;startSize=30;container=1;collapsible=1;childLayout=tableLayout;fixedRows=1;rowLines=0;fontStyle=1;align=center;resizeLast=1;html=1;" vertex="1" parent="1">
          <mxGeometry x="120" y="120" width="240" height="120" as="geometry" />
        </mxCell>
        <mxCell id="EtfkU_EAuupEm0dGScPF-2" value="" style="shape=tableRow;horizontal=0;startSize=0;swimlaneHead=0;swimlaneBody=0;fillColor=none;collapsible=0;dropTarget=0;points=[[0,0.5],[1,0.5]];portConstraint=eastwest;top=0;left=0;right=0;bottom=1;" vertex="1" parent="EtfkU_EAuupEm0dGScPF-1">
          <mxGeometry y="30" width="240" height="30" as="geometry" />
        </mxCell>
        <mxCell id="EtfkU_EAuupEm0dGScPF-3" value="PK" style="shape=partialRectangle;connectable=0;fillColor=none;top=0;left=0;bottom=0;right=0;fontStyle=1;overflow=hidden;whiteSpace=wrap;html=1;" vertex="1" parent="EtfkU_EAuupEm0dGScPF-2">
          <mxGeometry width="30" height="30" as="geometry">
            <mxRectangle width="30" height="30" as="alternateBounds" />
          </mxGeometry>
        </mxCell>
        <mxCell id="EtfkU_EAuupEm0dGScPF-4" value="department_id" style="shape=partialRectangle;connectable=0;fillColor=none;top=0;left=0;bottom=0;right=0;align=left;spacingLeft=6;fontStyle=5;overflow=hidden;whiteSpace=wrap;html=1;" vertex="1" parent="EtfkU_EAuupEm0dGScPF-2">
          <mxGeometry x="30" width="210" height="30" as="geometry">
            <mxRectangle width="210" height="30" as="alternateBounds" />
          </mxGeometry>
        </mxCell>
        <mxCell id="EtfkU_EAuupEm0dGScPF-5" value="" style="shape=tableRow;horizontal=0;startSize=0;swimlaneHead=0;swimlaneBody=0;fillColor=none;collapsible=0;dropTarget=0;points=[[0,0.5],[1,0.5]];portConstraint=eastwest;top=0;left=0;right=0;bottom=0;" vertex="1" parent="EtfkU_EAuupEm0dGScPF-1">
          <mxGeometry y="60" width="240" height="30" as="geometry" />
        </mxCell>
        <mxCell id="EtfkU_EAuupEm0dGScPF-6" value="" style="shape=partialRectangle;connectable=0;fillColor=none;top=0;left=0;bottom=0;right=0;editable=1;overflow=hidden;whiteSpace=wrap;html=1;" vertex="1" parent="EtfkU_EAuupEm0dGScPF-5">
          <mxGeometry width="30" height="30" as="geometry">
            <mxRectangle width="30" height="30" as="alternateBounds" />
          </mxGeometry>
        </mxCell>
        <mxCell id="EtfkU_EAuupEm0dGScPF-7" value="department_name" style="shape=partialRectangle;connectable=0;fillColor=none;top=0;left=0;bottom=0;right=0;align=left;spacingLeft=6;overflow=hidden;whiteSpace=wrap;html=1;" vertex="1" parent="EtfkU_EAuupEm0dGScPF-5">
          <mxGeometry x="30" width="210" height="30" as="geometry">
            <mxRectangle width="210" height="30" as="alternateBounds" />
          </mxGeometry>
        </mxCell>
        <mxCell id="EtfkU_EAuupEm0dGScPF-8" value="" style="shape=tableRow;horizontal=0;startSize=0;swimlaneHead=0;swimlaneBody=0;fillColor=none;collapsible=0;dropTarget=0;points=[[0,0.5],[1,0.5]];portConstraint=eastwest;top=0;left=0;right=0;bottom=0;" vertex="1" parent="EtfkU_EAuupEm0dGScPF-1">
          <mxGeometry y="90" width="240" height="30" as="geometry" />
        </mxCell>
        <mxCell id="EtfkU_EAuupEm0dGScPF-9" value="" style="shape=partialRectangle;connectable=0;fillColor=none;top=0;left=0;bottom=0;right=0;editable=1;overflow=hidden;whiteSpace=wrap;html=1;" vertex="1" parent="EtfkU_EAuupEm0dGScPF-8">
          <mxGeometry width="30" height="30" as="geometry">
            <mxRectangle width="30" height="30" as="alternateBounds" />
          </mxGeometry>
        </mxCell>
        <mxCell id="EtfkU_EAuupEm0dGScPF-10" value="department_location" style="shape=partialRectangle;connectable=0;fillColor=none;top=0;left=0;bottom=0;right=0;align=left;spacingLeft=6;overflow=hidden;whiteSpace=wrap;html=1;" vertex="1" parent="EtfkU_EAuupEm0dGScPF-8">
          <mxGeometry x="30" width="210" height="30" as="geometry">
            <mxRectangle width="210" height="30" as="alternateBounds" />
          </mxGeometry>
        </mxCell>
        <mxCell id="EtfkU_EAuupEm0dGScPF-14" value="Teacher" style="shape=table;startSize=30;container=1;collapsible=1;childLayout=tableLayout;fixedRows=1;rowLines=0;fontStyle=1;align=center;resizeLast=1;html=1;" vertex="1" parent="1">
          <mxGeometry x="480" y="120" width="240" height="210" as="geometry" />
        </mxCell>
        <mxCell id="EtfkU_EAuupEm0dGScPF-15" value="" style="shape=tableRow;horizontal=0;startSize=0;swimlaneHead=0;swimlaneBody=0;fillColor=none;collapsible=0;dropTarget=0;points=[[0,0.5],[1,0.5]];portConstraint=eastwest;top=0;left=0;right=0;bottom=1;" vertex="1" parent="EtfkU_EAuupEm0dGScPF-14">
          <mxGeometry y="30" width="240" height="30" as="geometry" />
        </mxCell>
        <mxCell id="EtfkU_EAuupEm0dGScPF-16" value="PK" style="shape=partialRectangle;connectable=0;fillColor=none;top=0;left=0;bottom=0;right=0;fontStyle=1;overflow=hidden;whiteSpace=wrap;html=1;" vertex="1" parent="EtfkU_EAuupEm0dGScPF-15">
          <mxGeometry width="30" height="30" as="geometry">
            <mxRectangle width="30" height="30" as="alternateBounds" />
          </mxGeometry>
        </mxCell>
        <mxCell id="EtfkU_EAuupEm0dGScPF-17" value="teacher_id" style="shape=partialRectangle;connectable=0;fillColor=none;top=0;left=0;bottom=0;right=0;align=left;spacingLeft=6;fontStyle=5;overflow=hidden;whiteSpace=wrap;html=1;" vertex="1" parent="EtfkU_EAuupEm0dGScPF-15">
          <mxGeometry x="30" width="210" height="30" as="geometry">
            <mxRectangle width="210" height="30" as="alternateBounds" />
          </mxGeometry>
        </mxCell>
        <mxCell id="EtfkU_EAuupEm0dGScPF-18" value="" style="shape=tableRow;horizontal=0;startSize=0;swimlaneHead=0;swimlaneBody=0;fillColor=none;collapsible=0;dropTarget=0;points=[[0,0.5],[1,0.5]];portConstraint=eastwest;top=0;left=0;right=0;bottom=0;" vertex="1" parent="EtfkU_EAuupEm0dGScPF-14">
          <mxGeometry y="60" width="240" height="30" as="geometry" />
        </mxCell>
        <mxCell id="EtfkU_EAuupEm0dGScPF-19" value="" style="shape=partialRectangle;connectable=0;fillColor=none;top=0;left=0;bottom=0;right=0;editable=1;overflow=hidden;whiteSpace=wrap;html=1;" vertex="1" parent="EtfkU_EAuupEm0dGScPF-18">
          <mxGeometry width="30" height="30" as="geometry">
            <mxRectangle width="30" height="30" as="alternateBounds" />
          </mxGeometry>
        </mxCell>
        <mxCell id="EtfkU_EAuupEm0dGScPF-20" value="teacher_firstname" style="shape=partialRectangle;connectable=0;fillColor=none;top=0;left=0;bottom=0;right=0;align=left;spacingLeft=6;overflow=hidden;whiteSpace=wrap;html=1;" vertex="1" parent="EtfkU_EAuupEm0dGScPF-18">
          <mxGeometry x="30" width="210" height="30" as="geometry">
            <mxRectangle width="210" height="30" as="alternateBounds" />
          </mxGeometry>
        </mxCell>
        <mxCell id="EtfkU_EAuupEm0dGScPF-21" value="" style="shape=tableRow;horizontal=0;startSize=0;swimlaneHead=0;swimlaneBody=0;fillColor=none;collapsible=0;dropTarget=0;points=[[0,0.5],[1,0.5]];portConstraint=eastwest;top=0;left=0;right=0;bottom=0;" vertex="1" parent="EtfkU_EAuupEm0dGScPF-14">
          <mxGeometry y="90" width="240" height="30" as="geometry" />
        </mxCell>
        <mxCell id="EtfkU_EAuupEm0dGScPF-22" value="" style="shape=partialRectangle;connectable=0;fillColor=none;top=0;left=0;bottom=0;right=0;editable=1;overflow=hidden;whiteSpace=wrap;html=1;" vertex="1" parent="EtfkU_EAuupEm0dGScPF-21">
          <mxGeometry width="30" height="30" as="geometry">
            <mxRectangle width="30" height="30" as="alternateBounds" />
          </mxGeometry>
        </mxCell>
        <mxCell id="EtfkU_EAuupEm0dGScPF-23" value="teacher_lastname" style="shape=partialRectangle;connectable=0;fillColor=none;top=0;left=0;bottom=0;right=0;align=left;spacingLeft=6;overflow=hidden;whiteSpace=wrap;html=1;" vertex="1" parent="EtfkU_EAuupEm0dGScPF-21">
          <mxGeometry x="30" width="210" height="30" as="geometry">
            <mxRectangle width="210" height="30" as="alternateBounds" />
          </mxGeometry>
        </mxCell>
        <mxCell id="EtfkU_EAuupEm0dGScPF-24" value="" style="shape=tableRow;horizontal=0;startSize=0;swimlaneHead=0;swimlaneBody=0;fillColor=none;collapsible=0;dropTarget=0;points=[[0,0.5],[1,0.5]];portConstraint=eastwest;top=0;left=0;right=0;bottom=0;" vertex="1" parent="EtfkU_EAuupEm0dGScPF-14">
          <mxGeometry y="120" width="240" height="30" as="geometry" />
        </mxCell>
        <mxCell id="EtfkU_EAuupEm0dGScPF-25" value="" style="shape=partialRectangle;connectable=0;fillColor=none;top=0;left=0;bottom=0;right=0;editable=1;overflow=hidden;whiteSpace=wrap;html=1;" vertex="1" parent="EtfkU_EAuupEm0dGScPF-24">
          <mxGeometry width="30" height="30" as="geometry">
            <mxRectangle width="30" height="30" as="alternateBounds" />
          </mxGeometry>
        </mxCell>
        <mxCell id="EtfkU_EAuupEm0dGScPF-26" value="teacher_address" style="shape=partialRectangle;connectable=0;fillColor=none;top=0;left=0;bottom=0;right=0;align=left;spacingLeft=6;overflow=hidden;whiteSpace=wrap;html=1;" vertex="1" parent="EtfkU_EAuupEm0dGScPF-24">
          <mxGeometry x="30" width="210" height="30" as="geometry">
            <mxRectangle width="210" height="30" as="alternateBounds" />
          </mxGeometry>
        </mxCell>
        <mxCell id="EtfkU_EAuupEm0dGScPF-27" value="Enrolment" style="shape=table;startSize=30;container=1;collapsible=1;childLayout=tableLayout;fixedRows=1;rowLines=0;fontStyle=1;align=center;resizeLast=1;html=1;" vertex="1" parent="1">
          <mxGeometry x="480" y="420" width="240" height="150" as="geometry" />
        </mxCell>
        <mxCell id="EtfkU_EAuupEm0dGScPF-28" value="" style="shape=tableRow;horizontal=0;startSize=0;swimlaneHead=0;swimlaneBody=0;fillColor=none;collapsible=0;dropTarget=0;points=[[0,0.5],[1,0.5]];portConstraint=eastwest;top=0;left=0;right=0;bottom=1;" vertex="1" parent="EtfkU_EAuupEm0dGScPF-27">
          <mxGeometry y="30" width="240" height="30" as="geometry" />
        </mxCell>
        <mxCell id="EtfkU_EAuupEm0dGScPF-29" value="PK" style="shape=partialRectangle;connectable=0;fillColor=none;top=0;left=0;bottom=0;right=0;fontStyle=1;overflow=hidden;whiteSpace=wrap;html=1;" vertex="1" parent="EtfkU_EAuupEm0dGScPF-28">
          <mxGeometry width="30" height="30" as="geometry">
            <mxRectangle width="30" height="30" as="alternateBounds" />
          </mxGeometry>
        </mxCell>
        <mxCell id="EtfkU_EAuupEm0dGScPF-30" value="enrolment_id" style="shape=partialRectangle;connectable=0;fillColor=none;top=0;left=0;bottom=0;right=0;align=left;spacingLeft=6;fontStyle=5;overflow=hidden;whiteSpace=wrap;html=1;" vertex="1" parent="EtfkU_EAuupEm0dGScPF-28">
          <mxGeometry x="30" width="210" height="30" as="geometry">
            <mxRectangle width="210" height="30" as="alternateBounds" />
          </mxGeometry>
        </mxCell>
        <mxCell id="EtfkU_EAuupEm0dGScPF-31" value="" style="shape=tableRow;horizontal=0;startSize=0;swimlaneHead=0;swimlaneBody=0;fillColor=none;collapsible=0;dropTarget=0;points=[[0,0.5],[1,0.5]];portConstraint=eastwest;top=0;left=0;right=0;bottom=0;" vertex="1" parent="EtfkU_EAuupEm0dGScPF-27">
          <mxGeometry y="60" width="240" height="30" as="geometry" />
        </mxCell>
        <mxCell id="EtfkU_EAuupEm0dGScPF-32" value="" style="shape=partialRectangle;connectable=0;fillColor=none;top=0;left=0;bottom=0;right=0;editable=1;overflow=hidden;whiteSpace=wrap;html=1;" vertex="1" parent="EtfkU_EAuupEm0dGScPF-31">
          <mxGeometry width="30" height="30" as="geometry">
            <mxRectangle width="30" height="30" as="alternateBounds" />
          </mxGeometry>
        </mxCell>
        <mxCell id="EtfkU_EAuupEm0dGScPF-33" value="course_id" style="shape=partialRectangle;connectable=0;fillColor=none;top=0;left=0;bottom=0;right=0;align=left;spacingLeft=6;overflow=hidden;whiteSpace=wrap;html=1;" vertex="1" parent="EtfkU_EAuupEm0dGScPF-31">
          <mxGeometry x="30" width="210" height="30" as="geometry">
            <mxRectangle width="210" height="30" as="alternateBounds" />
          </mxGeometry>
        </mxCell>
        <mxCell id="EtfkU_EAuupEm0dGScPF-34" value="" style="shape=tableRow;horizontal=0;startSize=0;swimlaneHead=0;swimlaneBody=0;fillColor=none;collapsible=0;dropTarget=0;points=[[0,0.5],[1,0.5]];portConstraint=eastwest;top=0;left=0;right=0;bottom=0;" vertex="1" parent="EtfkU_EAuupEm0dGScPF-27">
          <mxGeometry y="90" width="240" height="30" as="geometry" />
        </mxCell>
        <mxCell id="EtfkU_EAuupEm0dGScPF-35" value="" style="shape=partialRectangle;connectable=0;fillColor=none;top=0;left=0;bottom=0;right=0;editable=1;overflow=hidden;whiteSpace=wrap;html=1;" vertex="1" parent="EtfkU_EAuupEm0dGScPF-34">
          <mxGeometry width="30" height="30" as="geometry">
            <mxRectangle width="30" height="30" as="alternateBounds" />
          </mxGeometry>
        </mxCell>
        <mxCell id="EtfkU_EAuupEm0dGScPF-36" value="student_id" style="shape=partialRectangle;connectable=0;fillColor=none;top=0;left=0;bottom=0;right=0;align=left;spacingLeft=6;overflow=hidden;whiteSpace=wrap;html=1;" vertex="1" parent="EtfkU_EAuupEm0dGScPF-34">
          <mxGeometry x="30" width="210" height="30" as="geometry">
            <mxRectangle width="210" height="30" as="alternateBounds" />
          </mxGeometry>
        </mxCell>
        <mxCell id="EtfkU_EAuupEm0dGScPF-37" value="" style="shape=tableRow;horizontal=0;startSize=0;swimlaneHead=0;swimlaneBody=0;fillColor=none;collapsible=0;dropTarget=0;points=[[0,0.5],[1,0.5]];portConstraint=eastwest;top=0;left=0;right=0;bottom=0;" vertex="1" parent="EtfkU_EAuupEm0dGScPF-27">
          <mxGeometry y="120" width="240" height="30" as="geometry" />
        </mxCell>
        <mxCell id="EtfkU_EAuupEm0dGScPF-38" value="" style="shape=partialRectangle;connectable=0;fillColor=none;top=0;left=0;bottom=0;right=0;editable=1;overflow=hidden;whiteSpace=wrap;html=1;" vertex="1" parent="EtfkU_EAuupEm0dGScPF-37">
          <mxGeometry width="30" height="30" as="geometry">
            <mxRectangle width="30" height="30" as="alternateBounds" />
          </mxGeometry>
        </mxCell>
        <mxCell id="EtfkU_EAuupEm0dGScPF-39" value="semester" style="shape=partialRectangle;connectable=0;fillColor=none;top=0;left=0;bottom=0;right=0;align=left;spacingLeft=6;overflow=hidden;whiteSpace=wrap;html=1;" vertex="1" parent="EtfkU_EAuupEm0dGScPF-37">
          <mxGeometry x="30" width="210" height="30" as="geometry">
            <mxRectangle width="210" height="30" as="alternateBounds" />
          </mxGeometry>
        </mxCell>
        <mxCell id="EtfkU_EAuupEm0dGScPF-40" value="Course" style="shape=table;startSize=30;container=1;collapsible=1;childLayout=tableLayout;fixedRows=1;rowLines=0;fontStyle=1;align=center;resizeLast=1;html=1;" vertex="1" parent="1">
          <mxGeometry x="110" y="310" width="250" height="210" as="geometry" />
        </mxCell>
        <mxCell id="EtfkU_EAuupEm0dGScPF-41" value="" style="shape=tableRow;horizontal=0;startSize=0;swimlaneHead=0;swimlaneBody=0;fillColor=none;collapsible=0;dropTarget=0;points=[[0,0.5],[1,0.5]];portConstraint=eastwest;top=0;left=0;right=0;bottom=1;" vertex="1" parent="EtfkU_EAuupEm0dGScPF-40">
          <mxGeometry y="30" width="250" height="30" as="geometry" />
        </mxCell>
        <mxCell id="EtfkU_EAuupEm0dGScPF-42" value="PK" style="shape=partialRectangle;connectable=0;fillColor=none;top=0;left=0;bottom=0;right=0;fontStyle=1;overflow=hidden;whiteSpace=wrap;html=1;" vertex="1" parent="EtfkU_EAuupEm0dGScPF-41">
          <mxGeometry width="30" height="30" as="geometry">
            <mxRectangle width="30" height="30" as="alternateBounds" />
          </mxGeometry>
        </mxCell>
        <mxCell id="EtfkU_EAuupEm0dGScPF-43" value="course_id" style="shape=partialRectangle;connectable=0;fillColor=none;top=0;left=0;bottom=0;right=0;align=left;spacingLeft=6;fontStyle=5;overflow=hidden;whiteSpace=wrap;html=1;" vertex="1" parent="EtfkU_EAuupEm0dGScPF-41">
          <mxGeometry x="30" width="220" height="30" as="geometry">
            <mxRectangle width="220" height="30" as="alternateBounds" />
          </mxGeometry>
        </mxCell>
        <mxCell id="EtfkU_EAuupEm0dGScPF-44" value="" style="shape=tableRow;horizontal=0;startSize=0;swimlaneHead=0;swimlaneBody=0;fillColor=none;collapsible=0;dropTarget=0;points=[[0,0.5],[1,0.5]];portConstraint=eastwest;top=0;left=0;right=0;bottom=0;" vertex="1" parent="EtfkU_EAuupEm0dGScPF-40">
          <mxGeometry y="60" width="250" height="30" as="geometry" />
        </mxCell>
        <mxCell id="EtfkU_EAuupEm0dGScPF-45" value="" style="shape=partialRectangle;connectable=0;fillColor=none;top=0;left=0;bottom=0;right=0;editable=1;overflow=hidden;whiteSpace=wrap;html=1;" vertex="1" parent="EtfkU_EAuupEm0dGScPF-44">
          <mxGeometry width="30" height="30" as="geometry">
            <mxRectangle width="30" height="30" as="alternateBounds" />
          </mxGeometry>
        </mxCell>
        <mxCell id="EtfkU_EAuupEm0dGScPF-46" value="course_name" style="shape=partialRectangle;connectable=0;fillColor=none;top=0;left=0;bottom=0;right=0;align=left;spacingLeft=6;overflow=hidden;whiteSpace=wrap;html=1;" vertex="1" parent="EtfkU_EAuupEm0dGScPF-44">
          <mxGeometry x="30" width="220" height="30" as="geometry">
            <mxRectangle width="220" height="30" as="alternateBounds" />
          </mxGeometry>
        </mxCell>
        <mxCell id="EtfkU_EAuupEm0dGScPF-47" value="" style="shape=tableRow;horizontal=0;startSize=0;swimlaneHead=0;swimlaneBody=0;fillColor=none;collapsible=0;dropTarget=0;points=[[0,0.5],[1,0.5]];portConstraint=eastwest;top=0;left=0;right=0;bottom=0;" vertex="1" parent="EtfkU_EAuupEm0dGScPF-40">
          <mxGeometry y="90" width="250" height="30" as="geometry" />
        </mxCell>
        <mxCell id="EtfkU_EAuupEm0dGScPF-48" value="" style="shape=partialRectangle;connectable=0;fillColor=none;top=0;left=0;bottom=0;right=0;editable=1;overflow=hidden;whiteSpace=wrap;html=1;" vertex="1" parent="EtfkU_EAuupEm0dGScPF-47">
          <mxGeometry width="30" height="30" as="geometry">
            <mxRectangle width="30" height="30" as="alternateBounds" />
          </mxGeometry>
        </mxCell>
        <mxCell id="EtfkU_EAuupEm0dGScPF-49" value="department_id" style="shape=partialRectangle;connectable=0;fillColor=none;top=0;left=0;bottom=0;right=0;align=left;spacingLeft=6;overflow=hidden;whiteSpace=wrap;html=1;" vertex="1" parent="EtfkU_EAuupEm0dGScPF-47">
          <mxGeometry x="30" width="220" height="30" as="geometry">
            <mxRectangle width="220" height="30" as="alternateBounds" />
          </mxGeometry>
        </mxCell>
        <mxCell id="EtfkU_EAuupEm0dGScPF-50" value="" style="shape=tableRow;horizontal=0;startSize=0;swimlaneHead=0;swimlaneBody=0;fillColor=none;collapsible=0;dropTarget=0;points=[[0,0.5],[1,0.5]];portConstraint=eastwest;top=0;left=0;right=0;bottom=0;" vertex="1" parent="EtfkU_EAuupEm0dGScPF-40">
          <mxGeometry y="120" width="250" height="30" as="geometry" />
        </mxCell>
        <mxCell id="EtfkU_EAuupEm0dGScPF-51" value="" style="shape=partialRectangle;connectable=0;fillColor=none;top=0;left=0;bottom=0;right=0;editable=1;overflow=hidden;whiteSpace=wrap;html=1;" vertex="1" parent="EtfkU_EAuupEm0dGScPF-50">
          <mxGeometry width="30" height="30" as="geometry">
            <mxRectangle width="30" height="30" as="alternateBounds" />
          </mxGeometry>
        </mxCell>
        <mxCell id="EtfkU_EAuupEm0dGScPF-52" value="teacher_id" style="shape=partialRectangle;connectable=0;fillColor=none;top=0;left=0;bottom=0;right=0;align=left;spacingLeft=6;overflow=hidden;whiteSpace=wrap;html=1;" vertex="1" parent="EtfkU_EAuupEm0dGScPF-50">
          <mxGeometry x="30" width="220" height="30" as="geometry">
            <mxRectangle width="220" height="30" as="alternateBounds" />
          </mxGeometry>
        </mxCell>
        <mxCell id="EtfkU_EAuupEm0dGScPF-53" value="Student" style="shape=table;startSize=30;container=1;collapsible=1;childLayout=tableLayout;fixedRows=1;rowLines=0;fontStyle=1;align=center;resizeLast=1;html=1;" vertex="1" parent="1">
          <mxGeometry x="115" y="630" width="240" height="210" as="geometry" />
        </mxCell>
        <mxCell id="EtfkU_EAuupEm0dGScPF-54" value="" style="shape=tableRow;horizontal=0;startSize=0;swimlaneHead=0;swimlaneBody=0;fillColor=none;collapsible=0;dropTarget=0;points=[[0,0.5],[1,0.5]];portConstraint=eastwest;top=0;left=0;right=0;bottom=1;" vertex="1" parent="EtfkU_EAuupEm0dGScPF-53">
          <mxGeometry y="30" width="240" height="30" as="geometry" />
        </mxCell>
        <mxCell id="EtfkU_EAuupEm0dGScPF-55" value="PK" style="shape=partialRectangle;connectable=0;fillColor=none;top=0;left=0;bottom=0;right=0;fontStyle=1;overflow=hidden;whiteSpace=wrap;html=1;" vertex="1" parent="EtfkU_EAuupEm0dGScPF-54">
          <mxGeometry width="30" height="30" as="geometry">
            <mxRectangle width="30" height="30" as="alternateBounds" />
          </mxGeometry>
        </mxCell>
        <mxCell id="EtfkU_EAuupEm0dGScPF-56" value="student_id" style="shape=partialRectangle;connectable=0;fillColor=none;top=0;left=0;bottom=0;right=0;align=left;spacingLeft=6;fontStyle=5;overflow=hidden;whiteSpace=wrap;html=1;" vertex="1" parent="EtfkU_EAuupEm0dGScPF-54">
          <mxGeometry x="30" width="210" height="30" as="geometry">
            <mxRectangle width="210" height="30" as="alternateBounds" />
          </mxGeometry>
        </mxCell>
        <mxCell id="EtfkU_EAuupEm0dGScPF-57" value="" style="shape=tableRow;horizontal=0;startSize=0;swimlaneHead=0;swimlaneBody=0;fillColor=none;collapsible=0;dropTarget=0;points=[[0,0.5],[1,0.5]];portConstraint=eastwest;top=0;left=0;right=0;bottom=0;" vertex="1" parent="EtfkU_EAuupEm0dGScPF-53">
          <mxGeometry y="60" width="240" height="30" as="geometry" />
        </mxCell>
        <mxCell id="EtfkU_EAuupEm0dGScPF-58" value="" style="shape=partialRectangle;connectable=0;fillColor=none;top=0;left=0;bottom=0;right=0;editable=1;overflow=hidden;whiteSpace=wrap;html=1;" vertex="1" parent="EtfkU_EAuupEm0dGScPF-57">
          <mxGeometry width="30" height="30" as="geometry">
            <mxRectangle width="30" height="30" as="alternateBounds" />
          </mxGeometry>
        </mxCell>
        <mxCell id="EtfkU_EAuupEm0dGScPF-59" value="student_firstname" style="shape=partialRectangle;connectable=0;fillColor=none;top=0;left=0;bottom=0;right=0;align=left;spacingLeft=6;overflow=hidden;whiteSpace=wrap;html=1;" vertex="1" parent="EtfkU_EAuupEm0dGScPF-57">
          <mxGeometry x="30" width="210" height="30" as="geometry">
            <mxRectangle width="210" height="30" as="alternateBounds" />
          </mxGeometry>
        </mxCell>
        <mxCell id="EtfkU_EAuupEm0dGScPF-60" value="" style="shape=tableRow;horizontal=0;startSize=0;swimlaneHead=0;swimlaneBody=0;fillColor=none;collapsible=0;dropTarget=0;points=[[0,0.5],[1,0.5]];portConstraint=eastwest;top=0;left=0;right=0;bottom=0;" vertex="1" parent="EtfkU_EAuupEm0dGScPF-53">
          <mxGeometry y="90" width="240" height="30" as="geometry" />
        </mxCell>
        <mxCell id="EtfkU_EAuupEm0dGScPF-61" value="" style="shape=partialRectangle;connectable=0;fillColor=none;top=0;left=0;bottom=0;right=0;editable=1;overflow=hidden;whiteSpace=wrap;html=1;" vertex="1" parent="EtfkU_EAuupEm0dGScPF-60">
          <mxGeometry width="30" height="30" as="geometry">
            <mxRectangle width="30" height="30" as="alternateBounds" />
          </mxGeometry>
        </mxCell>
        <mxCell id="EtfkU_EAuupEm0dGScPF-62" value="student_lastname" style="shape=partialRectangle;connectable=0;fillColor=none;top=0;left=0;bottom=0;right=0;align=left;spacingLeft=6;overflow=hidden;whiteSpace=wrap;html=1;" vertex="1" parent="EtfkU_EAuupEm0dGScPF-60">
          <mxGeometry x="30" width="210" height="30" as="geometry">
            <mxRectangle width="210" height="30" as="alternateBounds" />
          </mxGeometry>
        </mxCell>
        <mxCell id="EtfkU_EAuupEm0dGScPF-63" value="" style="shape=tableRow;horizontal=0;startSize=0;swimlaneHead=0;swimlaneBody=0;fillColor=none;collapsible=0;dropTarget=0;points=[[0,0.5],[1,0.5]];portConstraint=eastwest;top=0;left=0;right=0;bottom=0;" vertex="1" parent="EtfkU_EAuupEm0dGScPF-53">
          <mxGeometry y="120" width="240" height="30" as="geometry" />
        </mxCell>
        <mxCell id="EtfkU_EAuupEm0dGScPF-64" value="" style="shape=partialRectangle;connectable=0;fillColor=none;top=0;left=0;bottom=0;right=0;editable=1;overflow=hidden;whiteSpace=wrap;html=1;" vertex="1" parent="EtfkU_EAuupEm0dGScPF-63">
          <mxGeometry width="30" height="30" as="geometry">
            <mxRectangle width="30" height="30" as="alternateBounds" />
          </mxGeometry>
        </mxCell>
        <mxCell id="EtfkU_EAuupEm0dGScPF-65" value="student_dob" style="shape=partialRectangle;connectable=0;fillColor=none;top=0;left=0;bottom=0;right=0;align=left;spacingLeft=6;overflow=hidden;whiteSpace=wrap;html=1;" vertex="1" parent="EtfkU_EAuupEm0dGScPF-63">
          <mxGeometry x="30" width="210" height="30" as="geometry">
            <mxRectangle width="210" height="30" as="alternateBounds" />
          </mxGeometry>
        </mxCell>
        <mxCell id="EtfkU_EAuupEm0dGScPF-77" value="" style="endArrow=none;html=1;rounded=0;" edge="1" parent="1">
          <mxGeometry width="50" height="50" relative="1" as="geometry">
            <mxPoint x="510" y="330" as="sourcePoint" />
            <mxPoint x="510" y="270" as="targetPoint" />
          </mxGeometry>
        </mxCell>
        <mxCell id="EtfkU_EAuupEm0dGScPF-78" value="teacher_dob" style="shape=partialRectangle;connectable=0;fillColor=none;top=0;left=0;bottom=0;right=0;align=left;spacingLeft=6;overflow=hidden;whiteSpace=wrap;html=1;" vertex="1" parent="1">
          <mxGeometry x="510" y="270" width="210" height="30" as="geometry">
            <mxRectangle width="210" height="30" as="alternateBounds" />
          </mxGeometry>
        </mxCell>
        <mxCell id="EtfkU_EAuupEm0dGScPF-79" value="department_name" style="shape=partialRectangle;connectable=0;fillColor=none;top=0;left=0;bottom=0;right=0;align=left;spacingLeft=6;overflow=hidden;whiteSpace=wrap;html=1;" vertex="1" parent="1">
          <mxGeometry x="510" y="300" width="210" height="30" as="geometry">
            <mxRectangle width="210" height="30" as="alternateBounds" />
          </mxGeometry>
        </mxCell>
        <mxCell id="EtfkU_EAuupEm0dGScPF-80" value="FK1" style="shape=partialRectangle;connectable=0;fillColor=none;top=0;left=0;bottom=0;right=0;editable=1;overflow=hidden;whiteSpace=wrap;html=1;" vertex="1" parent="1">
          <mxGeometry x="480" y="300" width="30" height="30" as="geometry">
            <mxRectangle width="30" height="30" as="alternateBounds" />
          </mxGeometry>
        </mxCell>
        <mxCell id="EtfkU_EAuupEm0dGScPF-81" value="" style="endArrow=none;html=1;rounded=0;" edge="1" parent="1">
          <mxGeometry width="50" height="50" relative="1" as="geometry">
            <mxPoint x="140" y="520" as="sourcePoint" />
            <mxPoint x="140" y="460" as="targetPoint" />
          </mxGeometry>
        </mxCell>
        <mxCell id="EtfkU_EAuupEm0dGScPF-82" value="teacher_firstname" style="shape=partialRectangle;connectable=0;fillColor=none;top=0;left=0;bottom=0;right=0;align=left;spacingLeft=6;overflow=hidden;whiteSpace=wrap;html=1;" vertex="1" parent="1">
          <mxGeometry x="140" y="460" width="220" height="30" as="geometry">
            <mxRectangle width="220" height="30" as="alternateBounds" />
          </mxGeometry>
        </mxCell>
        <mxCell id="EtfkU_EAuupEm0dGScPF-83" value="teacher_lastname" style="shape=partialRectangle;connectable=0;fillColor=none;top=0;left=0;bottom=0;right=0;align=left;spacingLeft=6;overflow=hidden;whiteSpace=wrap;html=1;" vertex="1" parent="1">
          <mxGeometry x="140" y="490" width="220" height="30" as="geometry">
            <mxRectangle width="220" height="30" as="alternateBounds" />
          </mxGeometry>
        </mxCell>
        <mxCell id="EtfkU_EAuupEm0dGScPF-84" value="FK1" style="shape=partialRectangle;connectable=0;fillColor=none;top=0;left=0;bottom=0;right=0;editable=1;overflow=hidden;whiteSpace=wrap;html=1;" vertex="1" parent="1">
          <mxGeometry x="110" y="430" width="30" height="30" as="geometry">
            <mxRectangle width="30" height="30" as="alternateBounds" />
          </mxGeometry>
        </mxCell>
        <mxCell id="EtfkU_EAuupEm0dGScPF-85" value="FK2" style="shape=partialRectangle;connectable=0;fillColor=none;top=0;left=0;bottom=0;right=0;editable=1;overflow=hidden;whiteSpace=wrap;html=1;" vertex="1" parent="1">
          <mxGeometry x="110" y="460" width="30" height="30" as="geometry">
            <mxRectangle width="30" height="30" as="alternateBounds" />
          </mxGeometry>
        </mxCell>
        <mxCell id="EtfkU_EAuupEm0dGScPF-86" value="FK3" style="shape=partialRectangle;connectable=0;fillColor=none;top=0;left=0;bottom=0;right=0;editable=1;overflow=hidden;whiteSpace=wrap;html=1;" vertex="1" parent="1">
          <mxGeometry x="110" y="490" width="30" height="30" as="geometry">
            <mxRectangle width="30" height="30" as="alternateBounds" />
          </mxGeometry>
        </mxCell>
        <mxCell id="EtfkU_EAuupEm0dGScPF-87" value="FK1" style="shape=partialRectangle;connectable=0;fillColor=none;top=0;left=0;bottom=0;right=0;editable=1;overflow=hidden;whiteSpace=wrap;html=1;" vertex="1" parent="1">
          <mxGeometry x="480" y="480" width="30" height="30" as="geometry">
            <mxRectangle width="30" height="30" as="alternateBounds" />
          </mxGeometry>
        </mxCell>
        <mxCell id="EtfkU_EAuupEm0dGScPF-88" value="FK2" style="shape=partialRectangle;connectable=0;fillColor=none;top=0;left=0;bottom=0;right=0;editable=1;overflow=hidden;whiteSpace=wrap;html=1;" vertex="1" parent="1">
          <mxGeometry x="480" y="510" width="30" height="30" as="geometry">
            <mxRectangle width="30" height="30" as="alternateBounds" />
          </mxGeometry>
        </mxCell>
        <mxCell id="EtfkU_EAuupEm0dGScPF-89" value="student_address" style="shape=partialRectangle;connectable=0;fillColor=none;top=0;left=0;bottom=0;right=0;align=left;spacingLeft=6;overflow=hidden;whiteSpace=wrap;html=1;" vertex="1" parent="1">
          <mxGeometry x="145" y="780" width="210" height="30" as="geometry">
            <mxRectangle width="210" height="30" as="alternateBounds" />
          </mxGeometry>
        </mxCell>
        <mxCell id="EtfkU_EAuupEm0dGScPF-90" value="student_email" style="shape=partialRectangle;connectable=0;fillColor=none;top=0;left=0;bottom=0;right=0;align=left;spacingLeft=6;overflow=hidden;whiteSpace=wrap;html=1;" vertex="1" parent="1">
          <mxGeometry x="145" y="810" width="210" height="30" as="geometry">
            <mxRectangle width="210" height="30" as="alternateBounds" />
          </mxGeometry>
        </mxCell>
        <mxCell id="EtfkU_EAuupEm0dGScPF-91" value="" style="endArrow=none;html=1;rounded=0;" edge="1" parent="1">
          <mxGeometry width="50" height="50" relative="1" as="geometry">
            <mxPoint x="145" y="840" as="sourcePoint" />
            <mxPoint x="145" y="780" as="targetPoint" />
          </mxGeometry>
        </mxCell>
        <mxCell id="EtfkU_EAuupEm0dGScPF-92" value="" style="edgeStyle=entityRelationEdgeStyle;fontSize=12;html=1;endArrow=ERoneToMany;rounded=0;curved=1;startSize=8;endSize=8;entryX=-0.004;entryY=0.1;entryDx=0;entryDy=0;entryPerimeter=0;" edge="1" parent="1" target="EtfkU_EAuupEm0dGScPF-14">
          <mxGeometry width="100" height="100" relative="1" as="geometry">
            <mxPoint x="360" y="140" as="sourcePoint" />
            <mxPoint x="430" y="140" as="targetPoint" />
            <Array as="points">
              <mxPoint x="390" y="65" />
            </Array>
          </mxGeometry>
        </mxCell>
        <mxCell id="EtfkU_EAuupEm0dGScPF-93" value="" style="edgeStyle=entityRelationEdgeStyle;fontSize=12;html=1;endArrow=ERoneToMany;rounded=0;curved=1;startSize=8;endSize=8;" edge="1" parent="1" source="EtfkU_EAuupEm0dGScPF-14" target="EtfkU_EAuupEm0dGScPF-27">
          <mxGeometry width="100" height="100" relative="1" as="geometry">
            <mxPoint x="720" y="210" as="sourcePoint" />
            <mxPoint x="710" y="420" as="targetPoint" />
            <Array as="points">
              <mxPoint x="662.5" y="265" />
              <mxPoint x="362.5" y="235" />
              <mxPoint x="432.5" y="235" />
              <mxPoint x="392.5" y="235" />
              <mxPoint x="502.5" y="305" />
              <mxPoint x="642.5" y="285" />
              <mxPoint x="692.5" y="215" />
            </Array>
          </mxGeometry>
        </mxCell>
        <mxCell id="EtfkU_EAuupEm0dGScPF-94" value="" style="edgeStyle=entityRelationEdgeStyle;fontSize=12;html=1;endArrow=ERoneToMany;rounded=0;curved=1;startSize=8;endSize=8;entryX=1.008;entryY=0.076;entryDx=0;entryDy=0;exitX=0;exitY=0.5;exitDx=0;exitDy=0;entryPerimeter=0;" edge="1" parent="1" source="EtfkU_EAuupEm0dGScPF-28" target="EtfkU_EAuupEm0dGScPF-40">
          <mxGeometry width="100" height="100" relative="1" as="geometry">
            <mxPoint x="430" y="435" as="sourcePoint" />
            <mxPoint x="360" y="365" as="targetPoint" />
          </mxGeometry>
        </mxCell>
        <mxCell id="EtfkU_EAuupEm0dGScPF-95" value="" style="edgeStyle=entityRelationEdgeStyle;fontSize=12;html=1;endArrow=ERoneToMany;rounded=0;curved=1;startSize=8;endSize=8;entryX=0.996;entryY=0.129;entryDx=0;entryDy=0;entryPerimeter=0;" edge="1" parent="1" target="EtfkU_EAuupEm0dGScPF-53">
          <mxGeometry width="100" height="100" relative="1" as="geometry">
            <mxPoint x="360" y="480" as="sourcePoint" />
            <mxPoint x="220" y="580" as="targetPoint" />
          </mxGeometry>
        </mxCell>
        <mxCell id="EtfkU_EAuupEm0dGScPF-96" value="" style="edgeStyle=entityRelationEdgeStyle;fontSize=12;html=1;endArrow=ERoneToMany;rounded=0;curved=1;startSize=8;endSize=8;entryX=1;entryY=0.5;entryDx=0;entryDy=0;exitX=0.454;exitY=1;exitDx=0;exitDy=0;exitPerimeter=0;" edge="1" parent="1" source="EtfkU_EAuupEm0dGScPF-37" target="EtfkU_EAuupEm0dGScPF-60">
          <mxGeometry width="100" height="100" relative="1" as="geometry">
            <mxPoint x="553" y="540" as="sourcePoint" />
            <mxPoint x="532" y="656" as="targetPoint" />
            <Array as="points">
              <mxPoint x="495.5" y="595" />
              <mxPoint x="195.5" y="565" />
              <mxPoint x="265.5" y="565" />
              <mxPoint x="225.5" y="565" />
              <mxPoint x="335.5" y="635" />
              <mxPoint x="475.5" y="615" />
              <mxPoint x="525.5" y="545" />
            </Array>
          </mxGeometry>
        </mxCell>
        <mxCell id="EtfkU_EAuupEm0dGScPF-97" value="INTEGER(11)" style="text;html=1;strokeColor=none;fillColor=none;align=center;verticalAlign=middle;whiteSpace=wrap;rounded=0;" vertex="1" parent="1">
          <mxGeometry x="290" y="150" width="60" height="30" as="geometry" />
        </mxCell>
        <mxCell id="EtfkU_EAuupEm0dGScPF-98" value="INTEGER(11)" style="text;html=1;strokeColor=none;fillColor=none;align=center;verticalAlign=middle;whiteSpace=wrap;rounded=0;" vertex="1" parent="1">
          <mxGeometry x="650" y="150" width="60" height="30" as="geometry" />
        </mxCell>
        <mxCell id="EtfkU_EAuupEm0dGScPF-99" value="INTEGER(11)" style="text;html=1;strokeColor=none;fillColor=none;align=center;verticalAlign=middle;whiteSpace=wrap;rounded=0;" vertex="1" parent="1">
          <mxGeometry x="650" y="270" width="60" height="30" as="geometry" />
        </mxCell>
        <mxCell id="EtfkU_EAuupEm0dGScPF-100" value="INTEGER(11)" style="text;html=1;strokeColor=none;fillColor=none;align=center;verticalAlign=middle;whiteSpace=wrap;rounded=0;" vertex="1" parent="1">
          <mxGeometry x="650" y="450" width="60" height="30" as="geometry" />
        </mxCell>
        <mxCell id="EtfkU_EAuupEm0dGScPF-101" value="INTEGER(11)" style="text;html=1;strokeColor=none;fillColor=none;align=center;verticalAlign=middle;whiteSpace=wrap;rounded=0;" vertex="1" parent="1">
          <mxGeometry x="650" y="480" width="60" height="30" as="geometry" />
        </mxCell>
        <mxCell id="EtfkU_EAuupEm0dGScPF-102" value="INTEGER(11)" style="text;html=1;strokeColor=none;fillColor=none;align=center;verticalAlign=middle;whiteSpace=wrap;rounded=0;" vertex="1" parent="1">
          <mxGeometry x="650" y="510" width="60" height="30" as="geometry" />
        </mxCell>
        <mxCell id="EtfkU_EAuupEm0dGScPF-103" value="INTEGER(11)" style="text;html=1;strokeColor=none;fillColor=none;align=center;verticalAlign=middle;whiteSpace=wrap;rounded=0;" vertex="1" parent="1">
          <mxGeometry x="290" y="340" width="60" height="30" as="geometry" />
        </mxCell>
        <mxCell id="EtfkU_EAuupEm0dGScPF-104" value="INTEGER(11)" style="text;html=1;strokeColor=none;fillColor=none;align=center;verticalAlign=middle;whiteSpace=wrap;rounded=0;" vertex="1" parent="1">
          <mxGeometry x="290" y="400" width="60" height="30" as="geometry" />
        </mxCell>
        <mxCell id="EtfkU_EAuupEm0dGScPF-105" value="INTEGER(11)" style="text;html=1;strokeColor=none;fillColor=none;align=center;verticalAlign=middle;whiteSpace=wrap;rounded=0;" vertex="1" parent="1">
          <mxGeometry x="290" y="430" width="60" height="30" as="geometry" />
        </mxCell>
        <mxCell id="EtfkU_EAuupEm0dGScPF-106" value="INTEGER(11)" style="text;html=1;strokeColor=none;fillColor=none;align=center;verticalAlign=middle;whiteSpace=wrap;rounded=0;" vertex="1" parent="1">
          <mxGeometry x="280" y="660" width="60" height="30" as="geometry" />
        </mxCell>
        <mxCell id="EtfkU_EAuupEm0dGScPF-107" value="INTEGER(11)" style="text;html=1;strokeColor=none;fillColor=none;align=center;verticalAlign=middle;whiteSpace=wrap;rounded=0;" vertex="1" parent="1">
          <mxGeometry x="280" y="750" width="60" height="30" as="geometry" />
        </mxCell>
        <mxCell id="EtfkU_EAuupEm0dGScPF-108" value="VARCHAR(50)" style="text;html=1;strokeColor=none;fillColor=none;align=center;verticalAlign=middle;whiteSpace=wrap;rounded=0;" vertex="1" parent="1">
          <mxGeometry x="650" y="180" width="60" height="30" as="geometry" />
        </mxCell>
        <mxCell id="EtfkU_EAuupEm0dGScPF-109" value="VARCHAR(50)" style="text;html=1;strokeColor=none;fillColor=none;align=center;verticalAlign=middle;whiteSpace=wrap;rounded=0;" vertex="1" parent="1">
          <mxGeometry x="650" y="210" width="60" height="30" as="geometry" />
        </mxCell>
        <mxCell id="EtfkU_EAuupEm0dGScPF-110" value="VARCHAR(50)" style="text;html=1;strokeColor=none;fillColor=none;align=center;verticalAlign=middle;whiteSpace=wrap;rounded=0;" vertex="1" parent="1">
          <mxGeometry x="290" y="460" width="60" height="30" as="geometry" />
        </mxCell>
        <mxCell id="EtfkU_EAuupEm0dGScPF-111" value="VARCHAR(50)" style="text;html=1;strokeColor=none;fillColor=none;align=center;verticalAlign=middle;whiteSpace=wrap;rounded=0;" vertex="1" parent="1">
          <mxGeometry x="290" y="490" width="60" height="30" as="geometry" />
        </mxCell>
        <mxCell id="EtfkU_EAuupEm0dGScPF-112" value="VARCHAR(50)" style="text;html=1;strokeColor=none;fillColor=none;align=center;verticalAlign=middle;whiteSpace=wrap;rounded=0;" vertex="1" parent="1">
          <mxGeometry x="280" y="690" width="60" height="30" as="geometry" />
        </mxCell>
        <mxCell id="EtfkU_EAuupEm0dGScPF-113" value="VARCHAR(50)" style="text;html=1;strokeColor=none;fillColor=none;align=center;verticalAlign=middle;whiteSpace=wrap;rounded=0;" vertex="1" parent="1">
          <mxGeometry x="280" y="720" width="60" height="30" as="geometry" />
        </mxCell>
        <mxCell id="EtfkU_EAuupEm0dGScPF-114" value="VARCHAR(200)" style="text;html=1;strokeColor=none;fillColor=none;align=center;verticalAlign=middle;whiteSpace=wrap;rounded=0;" vertex="1" parent="1">
          <mxGeometry x="285" y="180" width="60" height="30" as="geometry" />
        </mxCell>
        <mxCell id="EtfkU_EAuupEm0dGScPF-115" value="VARCHAR(200)" style="text;html=1;strokeColor=none;fillColor=none;align=center;verticalAlign=middle;whiteSpace=wrap;rounded=0;" vertex="1" parent="1">
          <mxGeometry x="285" y="210" width="60" height="30" as="geometry" />
        </mxCell>
        <mxCell id="EtfkU_EAuupEm0dGScPF-116" value="VARCHAR(200)" style="text;html=1;strokeColor=none;fillColor=none;align=center;verticalAlign=middle;whiteSpace=wrap;rounded=0;" vertex="1" parent="1">
          <mxGeometry x="645" y="240" width="60" height="30" as="geometry" />
        </mxCell>
        <mxCell id="EtfkU_EAuupEm0dGScPF-117" value="VARCHAR(200)" style="text;html=1;strokeColor=none;fillColor=none;align=center;verticalAlign=middle;whiteSpace=wrap;rounded=0;" vertex="1" parent="1">
          <mxGeometry x="645" y="300" width="60" height="30" as="geometry" />
        </mxCell>
        <mxCell id="EtfkU_EAuupEm0dGScPF-118" value="VARCHAR(200)" style="text;html=1;strokeColor=none;fillColor=none;align=center;verticalAlign=middle;whiteSpace=wrap;rounded=0;" vertex="1" parent="1">
          <mxGeometry x="285" y="370" width="60" height="30" as="geometry" />
        </mxCell>
        <mxCell id="EtfkU_EAuupEm0dGScPF-119" value="VARCHAR(200)" style="text;html=1;strokeColor=none;fillColor=none;align=center;verticalAlign=middle;whiteSpace=wrap;rounded=0;" vertex="1" parent="1">
          <mxGeometry x="280" y="780" width="60" height="30" as="geometry" />
        </mxCell>
        <mxCell id="EtfkU_EAuupEm0dGScPF-120" value="VARCHAR(200)" style="text;html=1;strokeColor=none;fillColor=none;align=center;verticalAlign=middle;whiteSpace=wrap;rounded=0;" vertex="1" parent="1">
          <mxGeometry x="280" y="810" width="60" height="30" as="geometry" />
        </mxCell>
        <mxCell id="EtfkU_EAuupEm0dGScPF-121" value="INTEGER(11)" style="text;html=1;strokeColor=none;fillColor=none;align=center;verticalAlign=middle;whiteSpace=wrap;rounded=0;" vertex="1" parent="1">
          <mxGeometry x="650" y="540" width="60" height="30" as="geometry" />
        </mxCell>
        <mxCell id="EtfkU_EAuupEm0dGScPF-122" value="" style="endArrow=none;html=1;rounded=0;" edge="1" parent="1">
          <mxGeometry width="50" height="50" relative="1" as="geometry">
            <mxPoint x="269" y="240" as="sourcePoint" />
            <mxPoint x="268.92" y="150" as="targetPoint" />
          </mxGeometry>
        </mxCell>
        <mxCell id="EtfkU_EAuupEm0dGScPF-123" value="" style="endArrow=none;html=1;rounded=0;" edge="1" parent="1">
          <mxGeometry width="50" height="50" relative="1" as="geometry">
            <mxPoint x="620" y="330" as="sourcePoint" />
            <mxPoint x="620" y="150" as="targetPoint" />
          </mxGeometry>
        </mxCell>
        <mxCell id="EtfkU_EAuupEm0dGScPF-124" value="" style="endArrow=none;html=1;rounded=0;" edge="1" parent="1">
          <mxGeometry width="50" height="50" relative="1" as="geometry">
            <mxPoint x="620" y="570" as="sourcePoint" />
            <mxPoint x="620" y="450" as="targetPoint" />
          </mxGeometry>
        </mxCell>
        <mxCell id="EtfkU_EAuupEm0dGScPF-125" value="" style="endArrow=none;html=1;rounded=0;" edge="1" parent="1">
          <mxGeometry width="50" height="50" relative="1" as="geometry">
            <mxPoint x="260" y="520" as="sourcePoint" />
            <mxPoint x="260" y="340" as="targetPoint" />
          </mxGeometry>
        </mxCell>
        <mxCell id="EtfkU_EAuupEm0dGScPF-126" value="" style="endArrow=none;html=1;rounded=0;" edge="1" parent="1">
          <mxGeometry width="50" height="50" relative="1" as="geometry">
            <mxPoint x="260" y="840" as="sourcePoint" />
            <mxPoint x="260" y="660" as="targetPoint" />
          </mxGeometry>
        </mxCell>
      </root>
    </mxGraphModel>
  </diagram>
</mxfile>
